<svg xmlns="http://www.w3.org/2000/svg" viewBox="0 0 200 200" width="200" height="200">
  <path d="M 103.00 100.00 L 103.06 100.17 L 103.10 100.34 L 103.14 100.52 L 103.17 100.70 L 103.18 100.89 L 103.19 101.08 L 103.18 101.27 L 103.16 101.47 L 103.13 101.67 L 103.09 101.87 L 103.03 102.07 L 102.96 102.27 L 102.88 102.46 L 102.78 102.66 L 102.68 102.85 L 102.56 103.04 L 102.42 103.22 L 102.28 103.40 L 102.12 103.57 L 101.95 103.73 L 101.77 103.89 L 101.58 104.04 L 101.38 104.17 L 101.16 104.30 L 100.94 104.42 L 100.71 104.52 L 100.47 104.61 L 100.22 104.69 L 99.96 104.76 L 99.70 104.81 L 99.43 104.85 L 99.16 104.87 L 98.88 104.87 L 98.60 104.86 L 98.32 104.84 L 98.03 104.80 L 97.75 104.74 L 97.46 104.66 L 97.18 104.57 L 96.90 104.46 L 96.63 104.33 L 96.36 104.18 L 96.09 104.02 L 95.83 103.85 L 95.58 103.65 L 95.34 103.44 L 95.11 103.22 L 94.89 102.98 L 94.68 102.72 L 94.49 102.45 L 94.31 102.17 L 94.14 101.88 L 93.99 101.57 L 93.85 101.25 L 93.73 100.93 L 93.63 100.59 L 93.55 100.24 L 93.48 99.89 L 93.44 99.53 L 93.41 99.17 L 93.41 98.80 L 93.42 98.43 L 93.46 98.06 L 93.52 97.68 L 93.60 97.31 L 93.70 96.94 L 93.82 96.57 L 93.97 96.21 L 94.13 95.85 L 94.32 95.50 L 94.53 95.16 L 94.76 94.82 L 95.01 94.50 L 95.27 94.19 L 95.56 93.89 L 95.87 93.61 L 96.19 93.34 L 96.53 93.09 L 96.89 92.85 L 97.26 92.64 L 97.65 92.44 L 98.05 92.27 L 98.46 92.11 L 98.88 91.98 L 99.32 91.87 L 99.76 91.79 L 100.21 91.72 L 100.66 91.69 L 101.12 91.68 L 101.59 91.69 L 102.05 91.73 L 102.51 91.80 L 102.98 91.89 L 103.44 92.01 L 103.90 92.15 L 104.35 92.32 L 104.79 92.52 L 105.23 92.74 L 105.65 92.99 L 106.07 93.26 L 106.47 93.56 L 106.85 93.88 L 107.22 94.22 L 107.58 94.59 L 107.91 94.98 L 108.23 95.39 L 108.52 95.82 L 108.79 96.26 L 109.04 96.72 L 109.26 97.20 L 109.46 97.70 L 109.63 98.20 L 109.77 98.72 L 109.89 99.25 L 109.97 99.79 L 110.03 100.34 L 110.06 100.89 L 110.06 101.44 L 110.02 102.00 L 109.96 102.56 L 109.86 103.11 L 109.73 103.67 L 109.58 104.22 L 109.39 104.76 L 109.17 105.29 L 108.91 105.82 L 108.63 106.33 L 108.32 106.83 L 107.98 107.31 L 107.62 107.78 L 107.22 108.23 L 106.80 108.66 L 106.36 109.06 L 105.88 109.45 L 105.39 109.81 L 104.88 110.14 L 104.34 110.45 L 103.78 110.72 L 103.21 110.97 L 102.62 111.19 L 102.02 111.38 L 101.41 111.53 L 100.78 111.65 L 100.15 111.74 L 99.51 111.79 L 98.86 111.80 L 98.21 111.78 L 97.56 111.73 L 96.91 111.64 L 96.26 111.51 L 95.62 111.34 L 94.98 111.14 L 94.36 110.91 L 93.74 110.64 L 93.14 110.33 L 92.55 109.99 L 91.98 109.62 L 91.42 109.21 L 90.89 108.77 L 90.38 108.30 L 89.90 107.80 L 89.44 107.28 L 89.00 106.72 L 88.60 106.14 L 88.23 105.54 L 87.89 104.91 L 87.58 104.27 L 87.31 103.60 L 87.07 102.92 L 86.87 102.22 L 86.71 101.51 L 86.59 100.79 L 86.50 100.06 L 86.46 99.32 L 86.46 98.58 L 86.50 97.83 L 86.57 97.09 L 86.69 96.34 L 86.86 95.61 L 87.06 94.88 L 87.30 94.15 L 87.58 93.44 L 87.91 92.75 L 88.27 92.06 L 88.67 91.40 L 89.11 90.76 L 89.58 90.14 L 90.09 89.54 L 90.64 88.97 L 91.22 88.43 L 91.83 87.92 L 92.46 87.44 L 93.13 86.99 L 93.82 86.58 L 94.54 86.21 L 95.28 85.88 L 96.04 85.58 L 96.82 85.33 L 97.61 85.12 L 98.42 84.95 L 99.24 84.83 L 100.06 84.75 L 100.90 84.71 L 101.74 84.72 L 102.57 84.78 L 103.41 84.88 L 104.25 85.03 L 105.07 85.23 L 105.89 85.47 L 106.70 85.76 L 107.50 86.09 L 108.27 86.47 L 109.03 86.89 L 109.77 87.35 L 110.48 87.86 L 111.17 88.40 L 111.83 88.98 L 112.46 89.61 L 113.05 90.26 L 113.62 90.95 L 114.14 91.68 L 114.63 92.43 L 115.07 93.21 L 115.47 94.02 L 115.84 94.85 L 116.15 95.71 L 116.42 96.58 L 116.64 97.47 L 116.81 98.38 L 116.94 99.29 L 117.01 100.21 L 117.04 101.14 L 117.01 102.08 L 116.93 103.01 L 116.80 103.94 L 116.62 104.87 L 116.39 105.78 L 116.10 106.69 L 115.77 107.58 L 115.39 108.46 L 114.96 109.32 L 114.48 110.15 L 113.95 110.96 L 113.38 111.75 L 112.76 112.50 L 112.10 113.22 L 111.41 113.91 L 110.67 114.55 L 109.89 115.16 L 109.08 115.73 L 108.24 116.26 L 107.37 116.74 L 106.47 117.17 L 105.54 117.56 L 104.59 117.89 L 103.62 118.17 L 102.64 118.40 L 101.64 118.58 L 100.63 118.70 L 99.61 118.77 L 98.58 118.78 L 97.55 118.74 L 96.53 118.63 L 95.50 118.48 L 94.49 118.26 L 93.48 117.99 L 92.49 117.67 L 91.51 117.29 L 90.55 116.85 L 89.62 116.36 L 88.71 115.82 L 87.82 115.23 L 86.97 114.59 L 86.15 113.90 L 85.37 113.17 L 84.63 112.39 L 83.93 111.57 L 83.27 110.71 L 82.66 109.82 L 82.10 108.89 L 81.58 107.92 L 81.12 106.93 L 80.72 105.91 L 80.36 104.87 L 80.07 103.80 L 79.83 102.72 L 79.65 101.62 L 79.53 100.51 L 79.48 99.40 L 79.48 98.28 L 79.54 97.15 L 79.67 96.03 L 79.86 94.92 L 80.10 93.81 L 80.41 92.72 L 80.78 91.64 L 81.21 90.58 L 81.70 89.54 L 82.25 88.52 L 82.85 87.54" fill="none" stroke="#F2EDE4" stroke-width="3.2" stroke-linecap="round" stroke-linejoin="round"/>
</svg>
